<svg id="my-svg" width="100%" xmlns="http://www.w3.org/2000/svg" xmlns:xlink="http://www.w3.org/1999/xlink" class="classDiagram" style="max-width: 892.609px; background-color: white;" viewBox="0 0 892.609375 979" role="graphics-document document" aria-roledescription="class"><style>#my-svg{font-family:"trebuchet ms",verdana,arial,sans-serif;font-size:16px;fill:#333;}@keyframes edge-animation-frame{from{stroke-dashoffset:0;}}@keyframes dash{to{stroke-dashoffset:0;}}#my-svg .edge-animation-slow{stroke-dasharray:9,5!important;stroke-dashoffset:900;animation:dash 50s linear infinite;stroke-linecap:round;}#my-svg .edge-animation-fast{stroke-dasharray:9,5!important;stroke-dashoffset:900;animation:dash 20s linear infinite;stroke-linecap:round;}#my-svg .error-icon{fill:#552222;}#my-svg .error-text{fill:#552222;stroke:#552222;}#my-svg .edge-thickness-normal{stroke-width:1px;}#my-svg .edge-thickness-thick{stroke-width:3.5px;}#my-svg .edge-pattern-solid{stroke-dasharray:0;}#my-svg .edge-thickness-invisible{stroke-width:0;fill:none;}#my-svg .edge-pattern-dashed{stroke-dasharray:3;}#my-svg .edge-pattern-dotted{stroke-dasharray:2;}#my-svg .marker{fill:#333333;stroke:#333333;}#my-svg .marker.cross{stroke:#333333;}#my-svg svg{font-family:"trebuchet ms",verdana,arial,sans-serif;font-size:16px;}#my-svg p{margin:0;}#my-svg g.classGroup text{fill:#9370DB;stroke:none;font-family:"trebuchet ms",verdana,arial,sans-serif;font-size:10px;}#my-svg g.classGroup text .title{font-weight:bolder;}#my-svg .cluster-label text{fill:#333;}#my-svg .cluster-label span{color:#333;}#my-svg .cluster-label span p{background-color:transparent;}#my-svg .cluster rect{fill:#ffffde;stroke:#aaaa33;stroke-width:1px;}#my-svg .cluster text{fill:#333;}#my-svg .cluster span{color:#333;}#my-svg .nodeLabel,#my-svg .edgeLabel{color:#131300;}#my-svg .edgeLabel .label rect{fill:#ECECFF;}#my-svg .label text{fill:#131300;}#my-svg .labelBkg{background:#ECECFF;}#my-svg .edgeLabel .label span{background:#ECECFF;}#my-svg .classTitle{font-weight:bolder;}#my-svg .node rect,#my-svg .node circle,#my-svg .node ellipse,#my-svg .node polygon,#my-svg .node path{fill:#ECECFF;stroke:#9370DB;stroke-width:1px;}#my-svg .divider{stroke:#9370DB;stroke-width:1;}#my-svg g.clickable{cursor:pointer;}#my-svg g.classGroup rect{fill:#ECECFF;stroke:#9370DB;}#my-svg g.classGroup line{stroke:#9370DB;stroke-width:1;}#my-svg .classLabel .box{stroke:none;stroke-width:0;fill:#ECECFF;opacity:0.5;}#my-svg .classLabel .label{fill:#9370DB;font-size:10px;}#my-svg .relation{stroke:#333333;stroke-width:1;fill:none;}#my-svg .dashed-line{stroke-dasharray:3;}#my-svg .dotted-line{stroke-dasharray:1 2;}#my-svg #compositionStart,#my-svg .composition{fill:#333333!important;stroke:#333333!important;stroke-width:1;}#my-svg #compositionEnd,#my-svg .composition{fill:#333333!important;stroke:#333333!important;stroke-width:1;}#my-svg #dependencyStart,#my-svg .dependency{fill:#333333!important;stroke:#333333!important;stroke-width:1;}#my-svg #dependencyStart,#my-svg .dependency{fill:#333333!important;stroke:#333333!important;stroke-width:1;}#my-svg #extensionStart,#my-svg .extension{fill:transparent!important;stroke:#333333!important;stroke-width:1;}#my-svg #extensionEnd,#my-svg .extension{fill:transparent!important;stroke:#333333!important;stroke-width:1;}#my-svg #aggregationStart,#my-svg .aggregation{fill:transparent!important;stroke:#333333!important;stroke-width:1;}#my-svg #aggregationEnd,#my-svg .aggregation{fill:transparent!important;stroke:#333333!important;stroke-width:1;}#my-svg #lollipopStart,#my-svg .lollipop{fill:#ECECFF!important;stroke:#333333!important;stroke-width:1;}#my-svg #lollipopEnd,#my-svg .lollipop{fill:#ECECFF!important;stroke:#333333!important;stroke-width:1;}#my-svg .edgeTerminals{font-size:11px;line-height:initial;}#my-svg .classTitleText{text-anchor:middle;font-size:18px;fill:#333;}#my-svg .label-icon{display:inline-block;height:1em;overflow:visible;vertical-align:-0.125em;}#my-svg .node .label-icon path{fill:currentColor;stroke:revert;stroke-width:revert;}#my-svg :root{--mermaid-font-family:"trebuchet ms",verdana,arial,sans-serif;}</style><g><defs><marker id="my-svg_class-aggregationStart" class="marker aggregation class" refX="18" refY="7" markerWidth="190" markerHeight="240" orient="auto"><path d="M 18,7 L9,13 L1,7 L9,1 Z"/></marker></defs><defs><marker id="my-svg_class-aggregationEnd" class="marker aggregation class" refX="1" refY="7" markerWidth="20" markerHeight="28" orient="auto"><path d="M 18,7 L9,13 L1,7 L9,1 Z"/></marker></defs><defs><marker id="my-svg_class-extensionStart" class="marker extension class" refX="18" refY="7" markerWidth="190" markerHeight="240" orient="auto"><path d="M 1,7 L18,13 V 1 Z"/></marker></defs><defs><marker id="my-svg_class-extensionEnd" class="marker extension class" refX="1" refY="7" markerWidth="20" markerHeight="28" orient="auto"><path d="M 1,1 V 13 L18,7 Z"/></marker></defs><defs><marker id="my-svg_class-compositionStart" class="marker composition class" refX="18" refY="7" markerWidth="190" markerHeight="240" orient="auto"><path d="M 18,7 L9,13 L1,7 L9,1 Z"/></marker></defs><defs><marker id="my-svg_class-compositionEnd" class="marker composition class" refX="1" refY="7" markerWidth="20" markerHeight="28" orient="auto"><path d="M 18,7 L9,13 L1,7 L9,1 Z"/></marker></defs><defs><marker id="my-svg_class-dependencyStart" class="marker dependency class" refX="6" refY="7" markerWidth="190" markerHeight="240" orient="auto"><path d="M 5,7 L9,13 L1,7 L9,1 Z"/></marker></defs><defs><marker id="my-svg_class-dependencyEnd" class="marker dependency class" refX="13" refY="7" markerWidth="20" markerHeight="28" orient="auto"><path d="M 18,7 L9,13 L14,7 L9,1 Z"/></marker></defs><defs><marker id="my-svg_class-lollipopStart" class="marker lollipop class" refX="13" refY="7" markerWidth="190" markerHeight="240" orient="auto"><circle fill="transparent" cx="7" cy="7" r="6"/></marker></defs><defs><marker id="my-svg_class-lollipopEnd" class="marker lollipop class" refX="1" refY="7" markerWidth="190" markerHeight="240" orient="auto"><circle fill="transparent" cx="7" cy="7" r="6"/></marker></defs><g class="root"><g class="clusters"/><g class="edgePaths"><path d="M432.635,84.657L446.533,80.881C460.431,77.105,488.227,69.552,514.374,65.776C540.521,62,565.018,62,577.267,62L589.516,62" id="id_DHPackContent_Adversary_1" class="edge-thickness-normal edge-pattern-solid relation" style=";;;" data-edge="true" data-et="edge" data-id="id_DHPackContent_Adversary_1" data-points="W3sieCI6NDE1Ljk4ODI4MTI1LCJ5Ijo4OS4xNzk5MzEyMTQyMzAwN30seyJ4Ijo1MTYuMDIzNDM3NSwieSI6NjJ9LHsieCI6NTg5LjUxNTYyNSwieSI6NjJ9XQ==" marker-start="url(#my-svg_class-compositionStart)"/><path d="M432.635,197.343L446.533,201.119C460.431,204.895,488.227,212.448,514.374,216.224C540.521,220,565.018,220,577.267,220L589.516,220" id="id_DHPackContent_DaggerheartEnvironment_2" class="edge-thickness-normal edge-pattern-solid relation" style=";;;" data-edge="true" data-et="edge" data-id="id_DHPackContent_DaggerheartEnvironment_2" data-points="W3sieCI6NDE1Ljk4ODI4MTI1LCJ5IjoxOTIuODIwMDY4Nzg1NzY5OTN9LHsieCI6NTE2LjAyMzQzNzUsInkiOjIyMH0seyJ4Ijo1ODkuNTE1NjI1LCJ5IjoyMjB9XQ==" marker-start="url(#my-svg_class-compositionStart)"/><path d="M442.531,465L454.78,465C467.029,465,491.526,465,522.982,465C554.439,465,592.854,465,612.062,465L631.27,465" id="id_ContentSource_ContentFingerprint_3" class="edge-thickness-normal edge-pattern-solid relation" style=";;;" data-edge="true" data-et="edge" data-id="id_ContentSource_ContentFingerprint_3" data-points="W3sieCI6NDQyLjUzMTI1LCJ5Ijo0NjV9LHsieCI6NTE2LjAyMzQzNzUsInkiOjQ2NX0seyJ4Ijo2MzcuMjY5NTMxMjUsInkiOjQ2NX1d" marker-end="url(#my-svg_class-dependencyEnd)"/></g><g class="edgeLabels"><g class="edgeLabel" transform="translate(516.0234375, 62)"><g class="label" data-id="id_DHPackContent_Adversary_1" transform="translate(-40.484375, -12)"><foreignObject width="80.96875" height="24"><div xmlns="http://www.w3.org/1999/xhtml" class="labelBkg" style="display: table-cell; white-space: nowrap; line-height: 1.5; max-width: 200px; text-align: center;"><span class="edgeLabel"><p>adversaries</p></span></div></foreignObject></g></g><g class="edgeLabel" transform="translate(516.0234375, 220)"><g class="label" data-id="id_DHPackContent_DaggerheartEnvironment_2" transform="translate(-48.4921875, -12)"><foreignObject width="96.984375" height="24"><div xmlns="http://www.w3.org/1999/xhtml" class="labelBkg" style="display: table-cell; white-space: nowrap; line-height: 1.5; max-width: 200px; text-align: center;"><span class="edgeLabel"><p>environments</p></span></div></foreignObject></g></g><g class="edgeLabel" transform="translate(516.0234375, 465)"><g class="label" data-id="id_ContentSource_ContentFingerprint_3" transform="translate(-38.4921875, -12)"><foreignObject width="76.984375" height="24"><div xmlns="http://www.w3.org/1999/xhtml" class="labelBkg" style="display: table-cell; white-space: nowrap; line-height: 1.5; max-width: 200px; text-align: center;"><span class="edgeLabel"><p>fingerprint</p></span></div></foreignObject></g></g><g class="edgeTerminals" transform="translate(436.80899661603723, 99.06667680362818)"><g class="inner" transform="translate(-2.890625, -8.25)"><foreignObject width="5.78125" height="16.5" style="width: 9px; height: 12px;"><div xmlns="http://www.w3.org/1999/xhtml" style="display: table-cell; white-space: nowrap; line-height: 1.5;"><span class="edgeLabel"><p>1</p></span></div></foreignObject></g></g><g class="edgeTerminals" transform="translate(428.9430546339628, 211.88374558939813)"><g class="inner" transform="translate(-2.890625, -8.25)"><foreignObject width="5.78125" height="16.5" style="width: 9px; height: 12px;"><div xmlns="http://www.w3.org/1999/xhtml" style="display: table-cell; white-space: nowrap; line-height: 1.5;"><span class="edgeLabel"><p>1</p></span></div></foreignObject></g></g><g class="edgeTerminals" transform="translate(567.0156274999999, 42)"><g class="inner" transform="translate(-8.9453125, -8.25)"/><foreignObject width="17.890625" height="16.5" style="width: 36px; height: 12px;"><div xmlns="http://www.w3.org/1999/xhtml" style="display: table-cell; white-space: nowrap; line-height: 1.5;"><span class="edgeLabel"><p>0..*</p></span></div></foreignObject></g><g class="edgeTerminals" transform="translate(567.0156274999999, 200)"><g class="inner" transform="translate(-8.9453125, -8.25)"/><foreignObject width="17.890625" height="16.5" style="width: 36px; height: 12px;"><div xmlns="http://www.w3.org/1999/xhtml" style="display: table-cell; white-space: nowrap; line-height: 1.5;"><span class="edgeLabel"><p>0..*</p></span></div></foreignObject></g></g><g class="nodes"><g class="node default" id="classId-DHPackContent-0" transform="translate(225.265625, 141)"><g class="basic label-container"><path d="M-190.72265625 -72 L190.72265625 -72 L190.72265625 72 L-190.72265625 72" stroke="none" stroke-width="0" fill="#ECECFF" style=""/><path d="M-190.72265625 -72 C-78.92973455168735 -72, 32.86318714662531 -72, 190.72265625 -72 M-190.72265625 -72 C-107.2941262711731 -72, -23.865596292346197 -72, 190.72265625 -72 M190.72265625 -72 C190.72265625 -19.045527102291402, 190.72265625 33.908945795417196, 190.72265625 72 M190.72265625 -72 C190.72265625 -41.5053331409658, 190.72265625 -11.010666281931606, 190.72265625 72 M190.72265625 72 C88.43183314807987 72, -13.85898995384025 72, -190.72265625 72 M190.72265625 72 C66.39502873635902 72, -57.93259877728195 72, -190.72265625 72 M-190.72265625 72 C-190.72265625 42.71560354223823, -190.72265625 13.431207084476455, -190.72265625 -72 M-190.72265625 72 C-190.72265625 37.7082137173626, -190.72265625 3.4164274347251933, -190.72265625 -72" stroke="#9370DB" stroke-width="1.3" fill="none" stroke-dasharray="0 0" style=""/></g><g class="annotation-group text" transform="translate(0, -48)"/><g class="label-group text" transform="translate(-57.4765625, -48)"><g class="label" style="font-weight: bolder" transform="translate(0,-12)"><foreignObject width="114.953125" height="24"><div xmlns="http://www.w3.org/1999/xhtml" style="display: table-cell; white-space: nowrap; line-height: 1.5; max-width: 155px; text-align: center;"><span class="nodeLabel markdown-node-label" style=""><p>DHPackContent</p></span></div></foreignObject></g></g><g class="members-group text" transform="translate(-178.72265625, 0)"><g class="label" style="" transform="translate(0,-12)"><foreignObject width="176.0625" height="24"><div xmlns="http://www.w3.org/1999/xhtml" style="display: table-cell; white-space: nowrap; line-height: 1.5; max-width: 217px; text-align: center;"><span class="nodeLabel markdown-node-label" style=""><p>+[Adversary] adversaries</p></span></div></foreignObject></g><g class="label" style="" transform="translate(0,12)"><foreignObject width="299.96875" height="24"><div xmlns="http://www.w3.org/1999/xhtml" style="display: table-cell; white-space: nowrap; line-height: 1.5; max-width: 328px; text-align: center;"><span class="nodeLabel markdown-node-label" style=""><p>+[DaggerheartEnvironment] environments</p></span></div></foreignObject></g></g><g class="methods-group text" transform="translate(-178.72265625, 72)"/><g class="divider" style=""><path d="M-190.72265625 -24 C-61.14806187943063 -24, 68.42653249113874 -24, 190.72265625 -24 M-190.72265625 -24 C-93.31305158202674 -24, 4.0965530859465105 -24, 190.72265625 -24" stroke="#9370DB" stroke-width="1.3" fill="none" stroke-dasharray="0 0" style=""/></g><g class="divider" style=""><path d="M-190.72265625 48 C-57.43234181600047 48, 75.85797261799905 48, 190.72265625 48 M-190.72265625 48 C-96.90018712132802 48, -3.0777179926560336 48, 190.72265625 48" stroke="#9370DB" stroke-width="1.3" fill="none" stroke-dasharray="0 0" style=""/></g></g><g class="node default" id="classId-Adversary-1" transform="translate(737.0625, 62)"><g class="basic label-container"><path d="M-147.546875 -54 L147.546875 -54 L147.546875 54 L-147.546875 54" stroke="none" stroke-width="0" fill="#ECECFF" style=""/><path d="M-147.546875 -54 C-31.52757604319767 -54, 84.49172291360466 -54, 147.546875 -54 M-147.546875 -54 C-51.03889986359955 -54, 45.46907527280089 -54, 147.546875 -54 M147.546875 -54 C147.546875 -27.460563392105097, 147.546875 -0.9211267842101947, 147.546875 54 M147.546875 -54 C147.546875 -14.322714840998643, 147.546875 25.354570318002715, 147.546875 54 M147.546875 54 C65.56171745423116 54, -16.423440091537685 54, -147.546875 54 M147.546875 54 C65.59556898892976 54, -16.355737022140488 54, -147.546875 54 M-147.546875 54 C-147.546875 28.514227166659083, -147.546875 3.028454333318166, -147.546875 -54 M-147.546875 54 C-147.546875 12.571994793933847, -147.546875 -28.856010412132306, -147.546875 -54" stroke="#9370DB" stroke-width="1.3" fill="none" stroke-dasharray="0 0" style=""/></g><g class="annotation-group text" transform="translate(-135.546875, -30)"><g class="label" style="" transform="translate(0,-12)"><foreignObject width="271.09375" height="24"><div xmlns="http://www.w3.org/1999/xhtml" style="display: table-cell; white-space: nowrap; line-height: 1.5; max-width: 295px; text-align: center;"><span class="nodeLabel markdown-node-label" style=""><p>«catalog type — see catalog diagram»</p></span></div></foreignObject></g></g><g class="label-group text" transform="translate(-37.34375, -6)"><g class="label" style="font-weight: bolder" transform="translate(0,-12)"><foreignObject width="74.6875" height="24"><div xmlns="http://www.w3.org/1999/xhtml" style="display: table-cell; white-space: nowrap; line-height: 1.5; max-width: 117px; text-align: center;"><span class="nodeLabel markdown-node-label" style=""><p>Adversary</p></span></div></foreignObject></g></g><g class="members-group text" transform="translate(-135.546875, 42)"/><g class="methods-group text" transform="translate(-135.546875, 72)"/><g class="divider" style=""><path d="M-147.546875 18 C-73.21341423271468 18, 1.1200465345706334 18, 147.546875 18 M-147.546875 18 C-68.92208517053191 18, 9.70270465893617 18, 147.546875 18" stroke="#9370DB" stroke-width="1.3" fill="none" stroke-dasharray="0 0" style=""/></g><g class="divider" style=""><path d="M-147.546875 36 C-67.06375873069159 36, 13.419357538616822 36, 147.546875 36 M-147.546875 36 C-43.987099523244595 36, 59.57267595351081 36, 147.546875 36" stroke="#9370DB" stroke-width="1.3" fill="none" stroke-dasharray="0 0" style=""/></g></g><g class="node default" id="classId-DaggerheartEnvironment-2" transform="translate(737.0625, 220)"><g class="basic label-container"><path d="M-147.546875 -54 L147.546875 -54 L147.546875 54 L-147.546875 54" stroke="none" stroke-width="0" fill="#ECECFF" style=""/><path d="M-147.546875 -54 C-45.42095836429675 -54, 56.7049582714065 -54, 147.546875 -54 M-147.546875 -54 C-40.830970103912435 -54, 65.88493479217513 -54, 147.546875 -54 M147.546875 -54 C147.546875 -12.350621607185467, 147.546875 29.298756785629067, 147.546875 54 M147.546875 -54 C147.546875 -32.121145457716324, 147.546875 -10.24229091543264, 147.546875 54 M147.546875 54 C69.10369969740549 54, -9.339475605189023 54, -147.546875 54 M147.546875 54 C53.03541725027928 54, -41.47604049944144 54, -147.546875 54 M-147.546875 54 C-147.546875 21.09469114125966, -147.546875 -11.810617717480682, -147.546875 -54 M-147.546875 54 C-147.546875 20.87369340096314, -147.546875 -12.252613198073718, -147.546875 -54" stroke="#9370DB" stroke-width="1.3" fill="none" stroke-dasharray="0 0" style=""/></g><g class="annotation-group text" transform="translate(-135.546875, -30)"><g class="label" style="" transform="translate(0,-12)"><foreignObject width="271.09375" height="24"><div xmlns="http://www.w3.org/1999/xhtml" style="display: table-cell; white-space: nowrap; line-height: 1.5; max-width: 295px; text-align: center;"><span class="nodeLabel markdown-node-label" style=""><p>«catalog type — see catalog diagram»</p></span></div></foreignObject></g></g><g class="label-group text" transform="translate(-93.8046875, -6)"><g class="label" style="font-weight: bolder" transform="translate(0,-12)"><foreignObject width="187.609375" height="24"><div xmlns="http://www.w3.org/1999/xhtml" style="display: table-cell; white-space: nowrap; line-height: 1.5; max-width: 213px; text-align: center;"><span class="nodeLabel markdown-node-label" style=""><p>DaggerheartEnvironment</p></span></div></foreignObject></g></g><g class="members-group text" transform="translate(-135.546875, 42)"/><g class="methods-group text" transform="translate(-135.546875, 72)"/><g class="divider" style=""><path d="M-147.546875 18 C-47.40407851799155 18, 52.7387179640169 18, 147.546875 18 M-147.546875 18 C-37.49119629668414 18, 72.56448240663173 18, 147.546875 18" stroke="#9370DB" stroke-width="1.3" fill="none" stroke-dasharray="0 0" style=""/></g><g class="divider" style=""><path d="M-147.546875 36 C-67.34365239662255 36, 12.85957020675491 36, 147.546875 36 M-147.546875 36 C-32.46690052705523 36, 82.61307394588954 36, 147.546875 36" stroke="#9370DB" stroke-width="1.3" fill="none" stroke-dasharray="0 0" style=""/></g></g><g class="node default" id="classId-ContentSource-3" transform="translate(225.265625, 465)"><g class="basic label-container"><path d="M-217.265625 -192 L217.265625 -192 L217.265625 192 L-217.265625 192" stroke="none" stroke-width="0" fill="#ECECFF" style=""/><path d="M-217.265625 -192 C-48.57933383996624 -192, 120.10695732006752 -192, 217.265625 -192 M-217.265625 -192 C-68.4292044055421 -192, 80.40721618891581 -192, 217.265625 -192 M217.265625 -192 C217.265625 -96.68365118054885, 217.265625 -1.3673023610976998, 217.265625 192 M217.265625 -192 C217.265625 -57.85791848608682, 217.265625 76.28416302782637, 217.265625 192 M217.265625 192 C121.58511231460125 192, 25.904599629202494 192, -217.265625 192 M217.265625 192 C77.22085413281943 192, -62.82391673436115 192, -217.265625 192 M-217.265625 192 C-217.265625 77.52543143807091, -217.265625 -36.94913712385818, -217.265625 -192 M-217.265625 192 C-217.265625 95.12176646047365, -217.265625 -1.7564670790526975, -217.265625 -192" stroke="#9370DB" stroke-width="1.3" fill="none" stroke-dasharray="0 0" style=""/></g><g class="annotation-group text" transform="translate(0, -168)"/><g class="label-group text" transform="translate(-55.265625, -168)"><g class="label" style="font-weight: bolder" transform="translate(0,-12)"><foreignObject width="110.53125" height="24"><div xmlns="http://www.w3.org/1999/xhtml" style="display: table-cell; white-space: nowrap; line-height: 1.5; max-width: 145px; text-align: center;"><span class="nodeLabel markdown-node-label" style=""><p>ContentSource</p></span></div></foreignObject></g></g><g class="members-group text" transform="translate(-205.265625, -120)"><g class="label" style="" transform="translate(0,-12)"><foreignObject width="61.703125" height="24"><div xmlns="http://www.w3.org/1999/xhtml" style="display: table-cell; white-space: nowrap; line-height: 1.5; max-width: 120px; text-align: center;"><span class="nodeLabel markdown-node-label" style=""><p>+UUID id</p></span></div></foreignObject></g><g class="label" style="" transform="translate(0,12)"><foreignObject width="151.1875" height="24"><div xmlns="http://www.w3.org/1999/xhtml" style="display: table-cell; white-space: nowrap; line-height: 1.5; max-width: 198px; text-align: center;"><span class="nodeLabel markdown-node-label" style=""><p>+String? displayName</p></span></div></foreignObject></g><g class="label" style="" transform="translate(0,36)"><foreignObject width="66.5625" height="24"><div xmlns="http://www.w3.org/1999/xhtml" style="display: table-cell; white-space: nowrap; line-height: 1.5; max-width: 124px; text-align: center;"><span class="nodeLabel markdown-node-label" style=""><p>+URL? url</p></span></div></foreignObject></g><g class="label" style="" transform="translate(0,60)"><foreignObject width="106.15625" height="24"><div xmlns="http://www.w3.org/1999/xhtml" style="display: table-cell; white-space: nowrap; line-height: 1.5; max-width: 152px; text-align: center;"><span class="nodeLabel markdown-node-label" style=""><p>+Date addedAt</p></span></div></foreignObject></g><g class="label" style="" transform="translate(0,84)"><foreignObject width="151.875" height="24"><div xmlns="http://www.w3.org/1999/xhtml" style="display: table-cell; white-space: nowrap; line-height: 1.5; max-width: 194px; text-align: center;"><span class="nodeLabel markdown-node-label" style=""><p>+Date? lastFetchedAt</p></span></div></foreignObject></g><g class="label" style="" transform="translate(0,108)"><foreignObject width="232.578125" height="24"><div xmlns="http://www.w3.org/1999/xhtml" style="display: table-cell; white-space: nowrap; line-height: 1.5; max-width: 266px; text-align: center;"><span class="nodeLabel markdown-node-label" style=""><p>+ContentFingerprint? fingerprint</p></span></div></foreignObject></g><g class="label" style="" transform="translate(0,132)"><foreignObject width="173.59375" height="24"><div xmlns="http://www.w3.org/1999/xhtml" style="display: table-cell; white-space: nowrap; line-height: 1.5; max-width: 212px; text-align: center;"><span class="nodeLabel markdown-node-label" style=""><p>+Int consecutiveFailures</p></span></div></foreignObject></g><g class="label" style="" transform="translate(0,156)"><foreignObject width="140.734375" height="24"><div xmlns="http://www.w3.org/1999/xhtml" style="display: table-cell; white-space: nowrap; line-height: 1.5; max-width: 189px; text-align: center;"><span class="nodeLabel markdown-node-label" style=""><p>+Bool isLocalImport</p></span></div></foreignObject></g></g><g class="methods-group text" transform="translate(-205.265625, 96)"><g class="label" style="" transform="translate(0,-12)"><foreignObject width="193.5625" height="24"><div xmlns="http://www.w3.org/1999/xhtml" style="display: table-cell; white-space: nowrap; line-height: 1.5; max-width: 230px; text-align: center;"><span class="nodeLabel markdown-node-label" style=""><p>+Bool isThrottled(at: Date)</p></span></div></foreignObject></g><g class="label" style="" transform="translate(0,12)"><foreignObject width="245.953125" height="24"><div xmlns="http://www.w3.org/1999/xhtml" style="display: table-cell; white-space: nowrap; line-height: 1.5; max-width: 277px; text-align: center;"><span class="nodeLabel markdown-node-label" style=""><p>+Date nextAllowedFetch(at: Date)</p></span></div></foreignObject></g><g class="label" style="" transform="translate(0,36)"><foreignObject width="306.34375" height="24"><div xmlns="http://www.w3.org/1999/xhtml" style="display: table-cell; white-space: nowrap; line-height: 1.5; max-width: 330px; text-align: center;"><span class="nodeLabel markdown-node-label" style=""><p>+ContentSource recordingFailure(at: Date)</p></span></div></foreignObject></g><g class="label" style="" transform="translate(0,60)"><foreignObject width="355.265625" height="24"><div xmlns="http://www.w3.org/1999/xhtml" style="display: table-cell; white-space: nowrap; line-height: 1.5; max-width: 374px; text-align: center;"><span class="nodeLabel markdown-node-label" style=""><p>+ContentSource recordingSuccess(fingerprint:at:)</p></span></div></foreignObject></g></g><g class="divider" style=""><path d="M-217.265625 -144 C-57.51921979987921 -144, 102.22718540024158 -144, 217.265625 -144 M-217.265625 -144 C-53.11067294042792 -144, 111.04427911914416 -144, 217.265625 -144" stroke="#9370DB" stroke-width="1.3" fill="none" stroke-dasharray="0 0" style=""/></g><g class="divider" style=""><path d="M-217.265625 72 C-85.61181872478042 72, 46.04198755043916 72, 217.265625 72 M-217.265625 72 C-121.1279755775583 72, -24.990326155116605 72, 217.265625 72" stroke="#9370DB" stroke-width="1.3" fill="none" stroke-dasharray="0 0" style=""/></g></g><g class="node default" id="classId-ContentFingerprint-4" transform="translate(737.0625, 465)"><g class="basic label-container"><path d="M-99.79296875 -72 L99.79296875 -72 L99.79296875 72 L-99.79296875 72" stroke="none" stroke-width="0" fill="#ECECFF" style=""/><path d="M-99.79296875 -72 C-40.22858139785732 -72, 19.335805954285362 -72, 99.79296875 -72 M-99.79296875 -72 C-46.33960144118894 -72, 7.113765867622121 -72, 99.79296875 -72 M99.79296875 -72 C99.79296875 -34.18725533148757, 99.79296875 3.6254893370248595, 99.79296875 72 M99.79296875 -72 C99.79296875 -23.340006389215546, 99.79296875 25.31998722156891, 99.79296875 72 M99.79296875 72 C59.06312886174912 72, 18.33328897349824 72, -99.79296875 72 M99.79296875 72 C43.78601944743278 72, -12.220929855134443 72, -99.79296875 72 M-99.79296875 72 C-99.79296875 25.148793532084085, -99.79296875 -21.70241293583183, -99.79296875 -72 M-99.79296875 72 C-99.79296875 23.29829694273313, -99.79296875 -25.403406114533738, -99.79296875 -72" stroke="#9370DB" stroke-width="1.3" fill="none" stroke-dasharray="0 0" style=""/></g><g class="annotation-group text" transform="translate(0, -48)"/><g class="label-group text" transform="translate(-71.9765625, -48)"><g class="label" style="font-weight: bolder" transform="translate(0,-12)"><foreignObject width="143.953125" height="24"><div xmlns="http://www.w3.org/1999/xhtml" style="display: table-cell; white-space: nowrap; line-height: 1.5; max-width: 173px; text-align: center;"><span class="nodeLabel markdown-node-label" style=""><p>ContentFingerprint</p></span></div></foreignObject></g></g><g class="members-group text" transform="translate(-87.79296875, 0)"><g class="label" style="" transform="translate(0,-12)"><foreignObject width="103.609375" height="24"><div xmlns="http://www.w3.org/1999/xhtml" style="display: table-cell; white-space: nowrap; line-height: 1.5; max-width: 152px; text-align: center;"><span class="nodeLabel markdown-node-label" style=""><p>+String sha256</p></span></div></foreignObject></g><g class="label" style="" transform="translate(0,12)"><foreignObject width="92.1875" height="24"><div xmlns="http://www.w3.org/1999/xhtml" style="display: table-cell; white-space: nowrap; line-height: 1.5; max-width: 140px; text-align: center;"><span class="nodeLabel markdown-node-label" style=""><p>+String? etag</p></span></div></foreignObject></g></g><g class="methods-group text" transform="translate(-87.79296875, 72)"/><g class="divider" style=""><path d="M-99.79296875 -24 C-49.848656331346646 -24, 0.0956560873067076 -24, 99.79296875 -24 M-99.79296875 -24 C-53.634125908591606 -24, -7.475283067183213 -24, 99.79296875 -24" stroke="#9370DB" stroke-width="1.3" fill="none" stroke-dasharray="0 0" style=""/></g><g class="divider" style=""><path d="M-99.79296875 48 C-59.59863644777277 48, -19.404304145545538 48, 99.79296875 48 M-99.79296875 48 C-34.028304897461396 48, 31.736358955077208 48, 99.79296875 48" stroke="#9370DB" stroke-width="1.3" fill="none" stroke-dasharray="0 0" style=""/></g></g><g class="node default" id="classId-ContentStoreError-5" transform="translate(225.265625, 839)"><g class="basic label-container"><path d="M-100.53515625 -132 L100.53515625 -132 L100.53515625 132 L-100.53515625 132" stroke="none" stroke-width="0" fill="#ECECFF" style=""/><path d="M-100.53515625 -132 C-35.65664452969787 -132, 29.221867190604257 -132, 100.53515625 -132 M-100.53515625 -132 C-39.750454755728974 -132, 21.034246738542052 -132, 100.53515625 -132 M100.53515625 -132 C100.53515625 -44.45733339061459, 100.53515625 43.08533321877081, 100.53515625 132 M100.53515625 -132 C100.53515625 -73.06680092242621, 100.53515625 -14.133601844852436, 100.53515625 132 M100.53515625 132 C20.372444002851154 132, -59.79026824429769 132, -100.53515625 132 M100.53515625 132 C46.8452096040892 132, -6.8447370418216025 132, -100.53515625 132 M-100.53515625 132 C-100.53515625 35.010946283671316, -100.53515625 -61.97810743265737, -100.53515625 -132 M-100.53515625 132 C-100.53515625 33.50830693190818, -100.53515625 -64.98338613618364, -100.53515625 -132" stroke="#9370DB" stroke-width="1.3" fill="none" stroke-dasharray="0 0" style=""/></g><g class="annotation-group text" transform="translate(-53.9296875, -108)"><g class="label" style="" transform="translate(0,-12)"><foreignObject width="107.859375" height="24"><div xmlns="http://www.w3.org/1999/xhtml" style="display: table-cell; white-space: nowrap; line-height: 1.5; max-width: 146px; text-align: center;"><span class="nodeLabel markdown-node-label" style=""><p>«enumeration»</p></span></div></foreignObject></g></g><g class="label-group text" transform="translate(-68.9453125, -84)"><g class="label" style="font-weight: bolder" transform="translate(0,-12)"><foreignObject width="137.890625" height="24"><div xmlns="http://www.w3.org/1999/xhtml" style="display: table-cell; white-space: nowrap; line-height: 1.5; max-width: 168px; text-align: center;"><span class="nodeLabel markdown-node-label" style=""><p>ContentStoreError</p></span></div></foreignObject></g></g><g class="members-group text" transform="translate(-88.53515625, -36)"><g class="label" style="" transform="translate(0,-12)"><foreignObject width="105.53125" height="24"><div xmlns="http://www.w3.org/1999/xhtml" style="display: table-cell; white-space: nowrap; line-height: 1.5; max-width: 142px; text-align: center;"><span class="nodeLabel markdown-node-label" style=""><p>fetchThrottled</p></span></div></foreignObject></g><g class="label" style="" transform="translate(0,12)"><foreignObject width="94.40625" height="24"><div xmlns="http://www.w3.org/1999/xhtml" style="display: table-cell; white-space: nowrap; line-height: 1.5; max-width: 136px; text-align: center;"><span class="nodeLabel markdown-node-label" style=""><p>networkError</p></span></div></foreignObject></g><g class="label" style="" transform="translate(0,36)"><foreignObject width="108.125" height="24"><div xmlns="http://www.w3.org/1999/xhtml" style="display: table-cell; white-space: nowrap; line-height: 1.5; max-width: 149px; text-align: center;"><span class="nodeLabel markdown-node-label" style=""><p>decodingFailed</p></span></div></foreignObject></g><g class="label" style="" transform="translate(0,60)"><foreignObject width="81.484375" height="24"><div xmlns="http://www.w3.org/1999/xhtml" style="display: table-cell; white-space: nowrap; line-height: 1.5; max-width: 123px; text-align: center;"><span class="nodeLabel markdown-node-label" style=""><p>writeFailed</p></span></div></foreignObject></g><g class="label" style="" transform="translate(0,84)"><foreignObject width="76" height="24"><div xmlns="http://www.w3.org/1999/xhtml" style="display: table-cell; white-space: nowrap; line-height: 1.5; max-width: 118px; text-align: center;"><span class="nodeLabel markdown-node-label" style=""><p>readFailed</p></span></div></foreignObject></g><g class="label" style="" transform="translate(0,108)"><foreignObject width="104.796875" height="24"><div xmlns="http://www.w3.org/1999/xhtml" style="display: table-cell; white-space: nowrap; line-height: 1.5; max-width: 145px; text-align: center;"><span class="nodeLabel markdown-node-label" style=""><p>invalidContent</p></span></div></foreignObject></g></g><g class="methods-group text" transform="translate(-88.53515625, 132)"/><g class="divider" style=""><path d="M-100.53515625 -60 C-21.544969380059356 -60, 57.44521748988129 -60, 100.53515625 -60 M-100.53515625 -60 C-22.28921288361927 -60, 55.95673048276146 -60, 100.53515625 -60" stroke="#9370DB" stroke-width="1.3" fill="none" stroke-dasharray="0 0" style=""/></g><g class="divider" style=""><path d="M-100.53515625 108 C-58.41084004219196 108, -16.286523834383914 108, 100.53515625 108 M-100.53515625 108 C-30.3665797984291 108, 39.8019966531418 108, 100.53515625 108" stroke="#9370DB" stroke-width="1.3" fill="none" stroke-dasharray="0 0" style=""/></g></g></g></g></g></svg>