<svg id="my-svg" width="100%" xmlns="http://www.w3.org/2000/svg" xmlns:xlink="http://www.w3.org/1999/xlink" class="classDiagram" style="max-width: 982.928px; background-color: white;" viewBox="0 0 982.927734375 690" role="graphics-document document" aria-roledescription="class"><style>#my-svg{font-family:"trebuchet ms",verdana,arial,sans-serif;font-size:16px;fill:#333;}@keyframes edge-animation-frame{from{stroke-dashoffset:0;}}@keyframes dash{to{stroke-dashoffset:0;}}#my-svg .edge-animation-slow{stroke-dasharray:9,5!important;stroke-dashoffset:900;animation:dash 50s linear infinite;stroke-linecap:round;}#my-svg .edge-animation-fast{stroke-dasharray:9,5!important;stroke-dashoffset:900;animation:dash 20s linear infinite;stroke-linecap:round;}#my-svg .error-icon{fill:#552222;}#my-svg .error-text{fill:#552222;stroke:#552222;}#my-svg .edge-thickness-normal{stroke-width:1px;}#my-svg .edge-thickness-thick{stroke-width:3.5px;}#my-svg .edge-pattern-solid{stroke-dasharray:0;}#my-svg .edge-thickness-invisible{stroke-width:0;fill:none;}#my-svg .edge-pattern-dashed{stroke-dasharray:3;}#my-svg .edge-pattern-dotted{stroke-dasharray:2;}#my-svg .marker{fill:#333333;stroke:#333333;}#my-svg .marker.cross{stroke:#333333;}#my-svg svg{font-family:"trebuchet ms",verdana,arial,sans-serif;font-size:16px;}#my-svg p{margin:0;}#my-svg g.classGroup text{fill:#9370DB;stroke:none;font-family:"trebuchet ms",verdana,arial,sans-serif;font-size:10px;}#my-svg g.classGroup text .title{font-weight:bolder;}#my-svg .cluster-label text{fill:#333;}#my-svg .cluster-label span{color:#333;}#my-svg .cluster-label span p{background-color:transparent;}#my-svg .cluster rect{fill:#ffffde;stroke:#aaaa33;stroke-width:1px;}#my-svg .cluster text{fill:#333;}#my-svg .cluster span{color:#333;}#my-svg .nodeLabel,#my-svg .edgeLabel{color:#131300;}#my-svg .edgeLabel .label rect{fill:#ECECFF;}#my-svg .label text{fill:#131300;}#my-svg .labelBkg{background:#ECECFF;}#my-svg .edgeLabel .label span{background:#ECECFF;}#my-svg .classTitle{font-weight:bolder;}#my-svg .node rect,#my-svg .node circle,#my-svg .node ellipse,#my-svg .node polygon,#my-svg .node path{fill:#ECECFF;stroke:#9370DB;stroke-width:1px;}#my-svg .divider{stroke:#9370DB;stroke-width:1;}#my-svg g.clickable{cursor:pointer;}#my-svg g.classGroup rect{fill:#ECECFF;stroke:#9370DB;}#my-svg g.classGroup line{stroke:#9370DB;stroke-width:1;}#my-svg .classLabel .box{stroke:none;stroke-width:0;fill:#ECECFF;opacity:0.5;}#my-svg .classLabel .label{fill:#9370DB;font-size:10px;}#my-svg .relation{stroke:#333333;stroke-width:1;fill:none;}#my-svg .dashed-line{stroke-dasharray:3;}#my-svg .dotted-line{stroke-dasharray:1 2;}#my-svg #compositionStart,#my-svg .composition{fill:#333333!important;stroke:#333333!important;stroke-width:1;}#my-svg #compositionEnd,#my-svg .composition{fill:#333333!important;stroke:#333333!important;stroke-width:1;}#my-svg #dependencyStart,#my-svg .dependency{fill:#333333!important;stroke:#333333!important;stroke-width:1;}#my-svg #dependencyStart,#my-svg .dependency{fill:#333333!important;stroke:#333333!important;stroke-width:1;}#my-svg #extensionStart,#my-svg .extension{fill:transparent!important;stroke:#333333!important;stroke-width:1;}#my-svg #extensionEnd,#my-svg .extension{fill:transparent!important;stroke:#333333!important;stroke-width:1;}#my-svg #aggregationStart,#my-svg .aggregation{fill:transparent!important;stroke:#333333!important;stroke-width:1;}#my-svg #aggregationEnd,#my-svg .aggregation{fill:transparent!important;stroke:#333333!important;stroke-width:1;}#my-svg #lollipopStart,#my-svg .lollipop{fill:#ECECFF!important;stroke:#333333!important;stroke-width:1;}#my-svg #lollipopEnd,#my-svg .lollipop{fill:#ECECFF!important;stroke:#333333!important;stroke-width:1;}#my-svg .edgeTerminals{font-size:11px;line-height:initial;}#my-svg .classTitleText{text-anchor:middle;font-size:18px;fill:#333;}#my-svg .label-icon{display:inline-block;height:1em;overflow:visible;vertical-align:-0.125em;}#my-svg .node .label-icon path{fill:currentColor;stroke:revert;stroke-width:revert;}#my-svg :root{--mermaid-font-family:"trebuchet ms",verdana,arial,sans-serif;}</style><g><defs><marker id="my-svg_class-aggregationStart" class="marker aggregation class" refX="18" refY="7" markerWidth="190" markerHeight="240" orient="auto"><path d="M 18,7 L9,13 L1,7 L9,1 Z"/></marker></defs><defs><marker id="my-svg_class-aggregationEnd" class="marker aggregation class" refX="1" refY="7" markerWidth="20" markerHeight="28" orient="auto"><path d="M 18,7 L9,13 L1,7 L9,1 Z"/></marker></defs><defs><marker id="my-svg_class-extensionStart" class="marker extension class" refX="18" refY="7" markerWidth="190" markerHeight="240" orient="auto"><path d="M 1,7 L18,13 V 1 Z"/></marker></defs><defs><marker id="my-svg_class-extensionEnd" class="marker extension class" refX="1" refY="7" markerWidth="20" markerHeight="28" orient="auto"><path d="M 1,1 V 13 L18,7 Z"/></marker></defs><defs><marker id="my-svg_class-compositionStart" class="marker composition class" refX="18" refY="7" markerWidth="190" markerHeight="240" orient="auto"><path d="M 18,7 L9,13 L1,7 L9,1 Z"/></marker></defs><defs><marker id="my-svg_class-compositionEnd" class="marker composition class" refX="1" refY="7" markerWidth="20" markerHeight="28" orient="auto"><path d="M 18,7 L9,13 L1,7 L9,1 Z"/></marker></defs><defs><marker id="my-svg_class-dependencyStart" class="marker dependency class" refX="6" refY="7" markerWidth="190" markerHeight="240" orient="auto"><path d="M 5,7 L9,13 L1,7 L9,1 Z"/></marker></defs><defs><marker id="my-svg_class-dependencyEnd" class="marker dependency class" refX="13" refY="7" markerWidth="20" markerHeight="28" orient="auto"><path d="M 18,7 L9,13 L14,7 L9,1 Z"/></marker></defs><defs><marker id="my-svg_class-lollipopStart" class="marker lollipop class" refX="13" refY="7" markerWidth="190" markerHeight="240" orient="auto"><circle fill="transparent" cx="7" cy="7" r="6"/></marker></defs><defs><marker id="my-svg_class-lollipopEnd" class="marker lollipop class" refX="1" refY="7" markerWidth="190" markerHeight="240" orient="auto"><circle fill="transparent" cx="7" cy="7" r="6"/></marker></defs><g class="root"><g class="clusters"/><g class="edgePaths"><path d="M163.773,313.25L163.773,316.542C163.773,319.833,163.773,326.417,163.773,337.875C163.773,349.333,163.773,365.667,163.773,373.833L163.773,382" id="id_EncounterDefinition_PlayerConfig_1" class="edge-thickness-normal edge-pattern-solid relation" style=";;;" data-edge="true" data-et="edge" data-id="id_EncounterDefinition_PlayerConfig_1" data-points="W3sieCI6MTYzLjc3MzQzNzUsInkiOjI5Nn0seyJ4IjoxNjMuNzczNDM3NSwieSI6MzMzfSx7IngiOjE2My43NzM0Mzc1LCJ5IjozODJ9XQ==" marker-start="url(#my-svg_class-compositionStart)"/><path d="M586.542,275L578.607,284.667C570.673,294.333,554.804,313.667,546.87,340.5C538.936,367.333,538.936,401.667,538.936,418.833L538.936,436" id="id_DifficultyBudget_DifficultyBudget_Rating_2" class="edge-thickness-normal edge-pattern-dashed relation" style=";;;" data-edge="true" data-et="edge" data-id="id_DifficultyBudget_DifficultyBudget_Rating_2" data-points="W3sieCI6NTg2LjU0MTgzNTcyMTY4NTEsInkiOjI3NX0seyJ4Ijo1MzguOTM1NTQ2ODc1LCJ5IjozMzN9LHsieCI6NTM4LjkzNTU0Njg3NSwieSI6NDQyfV0=" marker-end="url(#my-svg_class-dependencyEnd)"/><path d="M788.458,275L796.393,284.667C804.327,294.333,820.196,313.667,828.13,328.5C836.064,343.333,836.064,353.667,836.064,358.833L836.064,364" id="id_DifficultyBudget_DifficultyBudget_Adjustment_3" class="edge-thickness-normal edge-pattern-dashed relation" style=";;;" data-edge="true" data-et="edge" data-id="id_DifficultyBudget_DifficultyBudget_Adjustment_3" data-points="W3sieCI6Nzg4LjQ1ODE2NDI3ODMxNDksInkiOjI3NX0seyJ4Ijo4MzYuMDY0NDUzMTI1LCJ5IjozMzN9LHsieCI6ODM2LjA2NDQ1MzEyNSwieSI6MzcwfV0=" marker-end="url(#my-svg_class-dependencyEnd)"/></g><g class="edgeLabels"><g class="edgeLabel" transform="translate(163.7734375, 333)"><g class="label" data-id="id_EncounterDefinition_PlayerConfig_1" transform="translate(-48.3828125, -12)"><foreignObject width="96.765625" height="24"><div xmlns="http://www.w3.org/1999/xhtml" class="labelBkg" style="display: table-cell; white-space: nowrap; line-height: 1.5; max-width: 200px; text-align: center;"><span class="edgeLabel"><p>playerConfigs</p></span></div></foreignObject></g></g><g class="edgeLabel" transform="translate(538.935546875, 333)"><g class="label" data-id="id_DifficultyBudget_DifficultyBudget_Rating_2" transform="translate(-25.734375, -12)"><foreignObject width="51.46875" height="24"><div xmlns="http://www.w3.org/1999/xhtml" class="labelBkg" style="display: table-cell; white-space: nowrap; line-height: 1.5; max-width: 200px; text-align: center;"><span class="edgeLabel"><p>returns</p></span></div></foreignObject></g></g><g class="edgeLabel" transform="translate(836.064453125, 333)"><g class="label" data-id="id_DifficultyBudget_DifficultyBudget_Adjustment_3" transform="translate(-25.734375, -12)"><foreignObject width="51.46875" height="24"><div xmlns="http://www.w3.org/1999/xhtml" class="labelBkg" style="display: table-cell; white-space: nowrap; line-height: 1.5; max-width: 200px; text-align: center;"><span class="edgeLabel"><p>returns</p></span></div></foreignObject></g></g><g class="edgeTerminals" transform="translate(148.77343875000003, 313.5000010714286)"><g class="inner" transform="translate(-2.890625, -8.25)"><foreignObject width="5.78125" height="16.5" style="width: 9px; height: 12px;"><div xmlns="http://www.w3.org/1999/xhtml" style="display: table-cell; white-space: nowrap; line-height: 1.5;"><span class="edgeLabel"><p>1</p></span></div></foreignObject></g></g><g class="edgeTerminals" transform="translate(173.77343874999997, 359.5000010714286)"><g class="inner" transform="translate(-8.9453125, -8.25)"/><foreignObject width="17.890625" height="16.5" style="width: 36px; height: 12px;"><div xmlns="http://www.w3.org/1999/xhtml" style="display: table-cell; white-space: nowrap; line-height: 1.5;"><span class="edgeLabel"><p>0..*</p></span></div></foreignObject></g></g><g class="nodes"><g class="node default" id="classId-EncounterDefinition-0" transform="translate(163.7734375, 152)"><g class="basic label-container"><path d="M-155.7734375 -144 L155.7734375 -144 L155.7734375 144 L-155.7734375 144" stroke="none" stroke-width="0" fill="#ECECFF" style=""/><path d="M-155.7734375 -144 C-63.44093526093897 -144, 28.891566978122057 -144, 155.7734375 -144 M-155.7734375 -144 C-74.38368580243957 -144, 7.006065895120855 -144, 155.7734375 -144 M155.7734375 -144 C155.7734375 -62.07851712070382, 155.7734375 19.842965758592356, 155.7734375 144 M155.7734375 -144 C155.7734375 -31.764583053521562, 155.7734375 80.47083389295688, 155.7734375 144 M155.7734375 144 C52.55965776514216 144, -50.654121969715675 144, -155.7734375 144 M155.7734375 144 C87.23666186532256 144, 18.69988623064512 144, -155.7734375 144 M-155.7734375 144 C-155.7734375 54.83270240505854, -155.7734375 -34.33459518988292, -155.7734375 -144 M-155.7734375 144 C-155.7734375 65.76085786640081, -155.7734375 -12.478284267198376, -155.7734375 -144" stroke="#9370DB" stroke-width="1.3" fill="none" stroke-dasharray="0 0" style=""/></g><g class="annotation-group text" transform="translate(0, -120)"/><g class="label-group text" transform="translate(-75.53125, -120)"><g class="label" style="font-weight: bolder" transform="translate(0,-12)"><foreignObject width="151.0625" height="24"><div xmlns="http://www.w3.org/1999/xhtml" style="display: table-cell; white-space: nowrap; line-height: 1.5; max-width: 182px; text-align: center;"><span class="nodeLabel markdown-node-label" style=""><p>EncounterDefinition</p></span></div></foreignObject></g></g><g class="members-group text" transform="translate(-143.7734375, -72)"><g class="label" style="" transform="translate(0,-12)"><foreignObject width="61.703125" height="24"><div xmlns="http://www.w3.org/1999/xhtml" style="display: table-cell; white-space: nowrap; line-height: 1.5; max-width: 120px; text-align: center;"><span class="nodeLabel markdown-node-label" style=""><p>+UUID id</p></span></div></foreignObject></g><g class="label" style="" transform="translate(0,12)"><foreignObject width="93.96875" height="24"><div xmlns="http://www.w3.org/1999/xhtml" style="display: table-cell; white-space: nowrap; line-height: 1.5; max-width: 141px; text-align: center;"><span class="nodeLabel markdown-node-label" style=""><p>+String name</p></span></div></foreignObject></g><g class="label" style="" transform="translate(0,36)"><foreignObject width="156.390625" height="24"><div xmlns="http://www.w3.org/1999/xhtml" style="display: table-cell; white-space: nowrap; line-height: 1.5; max-width: 203px; text-align: center;"><span class="nodeLabel markdown-node-label" style=""><p>+[String] adversaryIDs</p></span></div></foreignObject></g><g class="label" style="" transform="translate(0,60)"><foreignObject width="177.8125" height="24"><div xmlns="http://www.w3.org/1999/xhtml" style="display: table-cell; white-space: nowrap; line-height: 1.5; max-width: 221px; text-align: center;"><span class="nodeLabel markdown-node-label" style=""><p>+[String] environmentIDs</p></span></div></foreignObject></g><g class="label" style="" transform="translate(0,84)"><foreignObject width="212.015625" height="24"><div xmlns="http://www.w3.org/1999/xhtml" style="display: table-cell; white-space: nowrap; line-height: 1.5; max-width: 254px; text-align: center;"><span class="nodeLabel markdown-node-label" style=""><p>+[PlayerConfig] playerConfigs</p></span></div></foreignObject></g><g class="label" style="" transform="translate(0,108)"><foreignObject width="116.46875" height="24"><div xmlns="http://www.w3.org/1999/xhtml" style="display: table-cell; white-space: nowrap; line-height: 1.5; max-width: 164px; text-align: center;"><span class="nodeLabel markdown-node-label" style=""><p>+String gmNotes</p></span></div></foreignObject></g><g class="label" style="" transform="translate(0,132)"><foreignObject width="117.546875" height="24"><div xmlns="http://www.w3.org/1999/xhtml" style="display: table-cell; white-space: nowrap; line-height: 1.5; max-width: 160px; text-align: center;"><span class="nodeLabel markdown-node-label" style=""><p>+Date createdAt</p></span></div></foreignObject></g><g class="label" style="" transform="translate(0,156)"><foreignObject width="125.75" height="24"><div xmlns="http://www.w3.org/1999/xhtml" style="display: table-cell; white-space: nowrap; line-height: 1.5; max-width: 171px; text-align: center;"><span class="nodeLabel markdown-node-label" style=""><p>+Date modifiedAt</p></span></div></foreignObject></g></g><g class="methods-group text" transform="translate(-143.7734375, 144)"/><g class="divider" style=""><path d="M-155.7734375 -96 C-36.43179191319274 -96, 82.90985367361452 -96, 155.7734375 -96 M-155.7734375 -96 C-90.79518333275064 -96, -25.81692916550128 -96, 155.7734375 -96" stroke="#9370DB" stroke-width="1.3" fill="none" stroke-dasharray="0 0" style=""/></g><g class="divider" style=""><path d="M-155.7734375 120 C-41.06123134295707 120, 73.65097481408586 120, 155.7734375 120 M-155.7734375 120 C-36.33160632965334 120, 83.11022484069332 120, 155.7734375 120" stroke="#9370DB" stroke-width="1.3" fill="none" stroke-dasharray="0 0" style=""/></g></g><g class="node default" id="classId-PlayerConfig-1" transform="translate(163.7734375, 526)"><g class="basic label-container"><path d="M-109.6328125 -144 L109.6328125 -144 L109.6328125 144 L-109.6328125 144" stroke="none" stroke-width="0" fill="#ECECFF" style=""/><path d="M-109.6328125 -144 C-59.450752634736034 -144, -9.268692769472068 -144, 109.6328125 -144 M-109.6328125 -144 C-45.57640764214108 -144, 18.479997215717844 -144, 109.6328125 -144 M109.6328125 -144 C109.6328125 -38.47727203403511, 109.6328125 67.04545593192978, 109.6328125 144 M109.6328125 -144 C109.6328125 -28.9761312562827, 109.6328125 86.0477374874346, 109.6328125 144 M109.6328125 144 C33.329760650966065 144, -42.97329119806787 144, -109.6328125 144 M109.6328125 144 C31.9720621204809 144, -45.6886882590382 144, -109.6328125 144 M-109.6328125 144 C-109.6328125 84.0519079680181, -109.6328125 24.1038159360362, -109.6328125 -144 M-109.6328125 144 C-109.6328125 81.89259908377359, -109.6328125 19.78519816754718, -109.6328125 -144" stroke="#9370DB" stroke-width="1.3" fill="none" stroke-dasharray="0 0" style=""/></g><g class="annotation-group text" transform="translate(0, -120)"/><g class="label-group text" transform="translate(-47.109375, -120)"><g class="label" style="font-weight: bolder" transform="translate(0,-12)"><foreignObject width="94.21875" height="24"><div xmlns="http://www.w3.org/1999/xhtml" style="display: table-cell; white-space: nowrap; line-height: 1.5; max-width: 135px; text-align: center;"><span class="nodeLabel markdown-node-label" style=""><p>PlayerConfig</p></span></div></foreignObject></g></g><g class="members-group text" transform="translate(-97.6328125, -72)"><g class="label" style="" transform="translate(0,-12)"><foreignObject width="61.703125" height="24"><div xmlns="http://www.w3.org/1999/xhtml" style="display: table-cell; white-space: nowrap; line-height: 1.5; max-width: 120px; text-align: center;"><span class="nodeLabel markdown-node-label" style=""><p>+UUID id</p></span></div></foreignObject></g><g class="label" style="" transform="translate(0,12)"><foreignObject width="93.96875" height="24"><div xmlns="http://www.w3.org/1999/xhtml" style="display: table-cell; white-space: nowrap; line-height: 1.5; max-width: 141px; text-align: center;"><span class="nodeLabel markdown-node-label" style=""><p>+String name</p></span></div></foreignObject></g><g class="label" style="" transform="translate(0,36)"><foreignObject width="81.84375" height="24"><div xmlns="http://www.w3.org/1999/xhtml" style="display: table-cell; white-space: nowrap; line-height: 1.5; max-width: 133px; text-align: center;"><span class="nodeLabel markdown-node-label" style=""><p>+Int maxHP</p></span></div></foreignObject></g><g class="label" style="" transform="translate(0,60)"><foreignObject width="104.390625" height="24"><div xmlns="http://www.w3.org/1999/xhtml" style="display: table-cell; white-space: nowrap; line-height: 1.5; max-width: 151px; text-align: center;"><span class="nodeLabel markdown-node-label" style=""><p>+Int maxStress</p></span></div></foreignObject></g><g class="label" style="" transform="translate(0,84)"><foreignObject width="86.09375" height="24"><div xmlns="http://www.w3.org/1999/xhtml" style="display: table-cell; white-space: nowrap; line-height: 1.5; max-width: 134px; text-align: center;"><span class="nodeLabel markdown-node-label" style=""><p>+Int evasion</p></span></div></foreignObject></g><g class="label" style="" transform="translate(0,108)"><foreignObject width="140.65625" height="24"><div xmlns="http://www.w3.org/1999/xhtml" style="display: table-cell; white-space: nowrap; line-height: 1.5; max-width: 184px; text-align: center;"><span class="nodeLabel markdown-node-label" style=""><p>+Int thresholdMajor</p></span></div></foreignObject></g><g class="label" style="" transform="translate(0,132)"><foreignObject width="148.15625" height="24"><div xmlns="http://www.w3.org/1999/xhtml" style="display: table-cell; white-space: nowrap; line-height: 1.5; max-width: 188px; text-align: center;"><span class="nodeLabel markdown-node-label" style=""><p>+Int thresholdSevere</p></span></div></foreignObject></g><g class="label" style="" transform="translate(0,156)"><foreignObject width="109.28125" height="24"><div xmlns="http://www.w3.org/1999/xhtml" style="display: table-cell; white-space: nowrap; line-height: 1.5; max-width: 155px; text-align: center;"><span class="nodeLabel markdown-node-label" style=""><p>+Int armorSlots</p></span></div></foreignObject></g></g><g class="methods-group text" transform="translate(-97.6328125, 144)"/><g class="divider" style=""><path d="M-109.6328125 -96 C-50.315966248443544 -96, 9.000880003112911 -96, 109.6328125 -96 M-109.6328125 -96 C-35.18865830831501 -96, 39.255495883369974 -96, 109.6328125 -96" stroke="#9370DB" stroke-width="1.3" fill="none" stroke-dasharray="0 0" style=""/></g><g class="divider" style=""><path d="M-109.6328125 120 C-23.99099085872703 120, 61.65083078254594 120, 109.6328125 120 M-109.6328125 120 C-23.48764741526864 120, 62.65751766946272 120, 109.6328125 120" stroke="#9370DB" stroke-width="1.3" fill="none" stroke-dasharray="0 0" style=""/></g></g><g class="node default" id="classId-DifficultyBudget-2" transform="translate(687.5, 152)"><g class="basic label-container"><path d="M-276.65234375 -123 L276.65234375 -123 L276.65234375 123 L-276.65234375 123" stroke="none" stroke-width="0" fill="#ECECFF" style=""/><path d="M-276.65234375 -123 C-157.09141642281355 -123, -37.53048909562713 -123, 276.65234375 -123 M-276.65234375 -123 C-86.51909783285689 -123, 103.61414808428623 -123, 276.65234375 -123 M276.65234375 -123 C276.65234375 -67.33466353433984, 276.65234375 -11.669327068679678, 276.65234375 123 M276.65234375 -123 C276.65234375 -53.29261888249174, 276.65234375 16.414762235016525, 276.65234375 123 M276.65234375 123 C160.114440546036 123, 43.576537342072044 123, -276.65234375 123 M276.65234375 123 C59.060828771297935 123, -158.53068620740413 123, -276.65234375 123 M-276.65234375 123 C-276.65234375 59.89871746181512, -276.65234375 -3.2025650763697655, -276.65234375 -123 M-276.65234375 123 C-276.65234375 66.99684481885399, -276.65234375 10.993689637707973, -276.65234375 -123" stroke="#9370DB" stroke-width="1.3" fill="none" stroke-dasharray="0 0" style=""/></g><g class="annotation-group text" transform="translate(-29.9765625, -99)"><g class="label" style="" transform="translate(0,-12)"><foreignObject width="59.953125" height="24"><div xmlns="http://www.w3.org/1999/xhtml" style="display: table-cell; white-space: nowrap; line-height: 1.5; max-width: 104px; text-align: center;"><span class="nodeLabel markdown-node-label" style=""><p>«utility»</p></span></div></foreignObject></g></g><g class="label-group text" transform="translate(-60.3671875, -75)"><g class="label" style="font-weight: bolder" transform="translate(0,-12)"><foreignObject width="120.734375" height="24"><div xmlns="http://www.w3.org/1999/xhtml" style="display: table-cell; white-space: nowrap; line-height: 1.5; max-width: 159px; text-align: center;"><span class="nodeLabel markdown-node-label" style=""><p>DifficultyBudget</p></span></div></foreignObject></g></g><g class="members-group text" transform="translate(-264.65234375, -27)"/><g class="methods-group text" transform="translate(-264.65234375, 3)"><g class="label" style="text-decoration:underline;" transform="translate(0,-12)"><foreignObject width="218.15625" height="24"><div xmlns="http://www.w3.org/1999/xhtml" style="display: table-cell; white-space: nowrap; line-height: 1.5; max-width: 255px; text-align: center;"><span class="nodeLabel markdown-node-label" style=""><p>+cost(for: AdversaryType) : Int</p></span></div></foreignObject></g><g class="label" style="text-decoration:underline;" transform="translate(0,12)"><foreignObject width="230.265625" height="24"><div xmlns="http://www.w3.org/1999/xhtml" style="display: table-cell; white-space: nowrap; line-height: 1.5; max-width: 263px; text-align: center;"><span class="nodeLabel markdown-node-label" style=""><p>+baseBudget(playerCount:) : Int</p></span></div></foreignObject></g><g class="label" style="text-decoration:underline;" transform="translate(0,36)"><foreignObject width="266.84375" height="24"><div xmlns="http://www.w3.org/1999/xhtml" style="display: table-cell; white-space: nowrap; line-height: 1.5; max-width: 298px; text-align: center;"><span class="nodeLabel markdown-node-label" style=""><p>+totalCost(for: [AdversaryType]) : Int</p></span></div></foreignObject></g><g class="label" style="text-decoration:underline;" transform="translate(0,60)"><foreignObject width="468.9375" height="24"><div xmlns="http://www.w3.org/1999/xhtml" style="display: table-cell; white-space: nowrap; line-height: 1.5; max-width: 477px; text-align: center;"><span class="nodeLabel markdown-node-label" style=""><p>+rating(adversaryTypes:playerCount:budgetAdjustment:) : Rating</p></span></div></foreignObject></g><g class="label" style="text-decoration:underline;" transform="translate(0,84)"><foreignObject width="432.328125" height="24"><div xmlns="http://www.w3.org/1999/xhtml" style="display: table-cell; white-space: nowrap; line-height: 1.5; max-width: 485px; text-align: center;"><span class="nodeLabel markdown-node-label" style=""><p>+suggestedAdjustments(adversaryTypes:) : Set&lt;Adjustment&gt;</p></span></div></foreignObject></g></g><g class="divider" style=""><path d="M-276.65234375 -51 C-121.68884332762252 -51, 33.27465709475496 -51, 276.65234375 -51 M-276.65234375 -51 C-114.51931458304139 -51, 47.613714583917215 -51, 276.65234375 -51" stroke="#9370DB" stroke-width="1.3" fill="none" stroke-dasharray="0 0" style=""/></g><g class="divider" style=""><path d="M-276.65234375 -27 C-135.36760821624424 -27, 5.917127317511529 -27, 276.65234375 -27 M-276.65234375 -27 C-135.09932787348703 -27, 6.453688003025945 -27, 276.65234375 -27" stroke="#9370DB" stroke-width="1.3" fill="none" stroke-dasharray="0 0" style=""/></g></g><g class="node default" id="classId-DifficultyBudget_Rating-3" transform="translate(538.935546875, 526)"><g class="basic label-container"><path d="M-108.265625 -84 L108.265625 -84 L108.265625 84 L-108.265625 84" stroke="none" stroke-width="0" fill="#ECECFF" style=""/><path d="M-108.265625 -84 C-52.60764129906067 -84, 3.050342401878666 -84, 108.265625 -84 M-108.265625 -84 C-36.7604652323209 -84, 34.74469453535821 -84, 108.265625 -84 M108.265625 -84 C108.265625 -17.809668420872725, 108.265625 48.38066315825455, 108.265625 84 M108.265625 -84 C108.265625 -26.157259119218224, 108.265625 31.68548176156355, 108.265625 84 M108.265625 84 C52.286848630865435 84, -3.691927738269129 84, -108.265625 84 M108.265625 84 C61.913774255889855 84, 15.56192351177971 84, -108.265625 84 M-108.265625 84 C-108.265625 43.36193332004369, -108.265625 2.7238666400873797, -108.265625 -84 M-108.265625 84 C-108.265625 33.589315986391725, -108.265625 -16.82136802721655, -108.265625 -84" stroke="#9370DB" stroke-width="1.3" fill="none" stroke-dasharray="0 0" style=""/></g><g class="annotation-group text" transform="translate(0, -60)"/><g class="label-group text" transform="translate(-88.5, -60)"><g class="label" style="font-weight: bolder" transform="translate(0,-12)"><foreignObject width="177" height="24"><div xmlns="http://www.w3.org/1999/xhtml" style="display: table-cell; white-space: nowrap; line-height: 1.5; max-width: 210px; text-align: center;"><span class="nodeLabel markdown-node-label" style=""><p>DifficultyBudget_Rating</p></span></div></foreignObject></g></g><g class="members-group text" transform="translate(-96.265625, -12)"><g class="label" style="" transform="translate(0,-12)"><foreignObject width="62.078125" height="24"><div xmlns="http://www.w3.org/1999/xhtml" style="display: table-cell; white-space: nowrap; line-height: 1.5; max-width: 111px; text-align: center;"><span class="nodeLabel markdown-node-label" style=""><p>+Int cost</p></span></div></foreignObject></g><g class="label" style="" transform="translate(0,12)"><foreignObject width="82.421875" height="24"><div xmlns="http://www.w3.org/1999/xhtml" style="display: table-cell; white-space: nowrap; line-height: 1.5; max-width: 129px; text-align: center;"><span class="nodeLabel markdown-node-label" style=""><p>+Int budget</p></span></div></foreignObject></g><g class="label" style="" transform="translate(0,36)"><foreignObject width="104.03125" height="24"><div xmlns="http://www.w3.org/1999/xhtml" style="display: table-cell; white-space: nowrap; line-height: 1.5; max-width: 150px; text-align: center;"><span class="nodeLabel markdown-node-label" style=""><p>+Int remaining</p></span></div></foreignObject></g></g><g class="methods-group text" transform="translate(-96.265625, 84)"/><g class="divider" style=""><path d="M-108.265625 -36 C-25.44889142702614 -36, 57.36784214594772 -36, 108.265625 -36 M-108.265625 -36 C-55.41519962927386 -36, -2.5647742585477147 -36, 108.265625 -36" stroke="#9370DB" stroke-width="1.3" fill="none" stroke-dasharray="0 0" style=""/></g><g class="divider" style=""><path d="M-108.265625 60 C-51.390832580523195 60, 5.483959838953609 60, 108.265625 60 M-108.265625 60 C-35.1944717867198 60, 37.876681426560395 60, 108.265625 60" stroke="#9370DB" stroke-width="1.3" fill="none" stroke-dasharray="0 0" style=""/></g></g><g class="node default" id="classId-DifficultyBudget_Adjustment-4" transform="translate(836.064453125, 526)"><g class="basic label-container"><path d="M-138.86328125 -156 L138.86328125 -156 L138.86328125 156 L-138.86328125 156" stroke="none" stroke-width="0" fill="#ECECFF" style=""/><path d="M-138.86328125 -156 C-55.5105433176232 -156, 27.842194614753595 -156, 138.86328125 -156 M-138.86328125 -156 C-66.46259074026459 -156, 5.938099769470824 -156, 138.86328125 -156 M138.86328125 -156 C138.86328125 -37.93053775583833, 138.86328125 80.13892448832334, 138.86328125 156 M138.86328125 -156 C138.86328125 -77.65299041935894, 138.86328125 0.6940191612821138, 138.86328125 156 M138.86328125 156 C69.97841501254972 156, 1.0935487750994355 156, -138.86328125 156 M138.86328125 156 C32.44761109227258 156, -73.96805906545484 156, -138.86328125 156 M-138.86328125 156 C-138.86328125 73.00443599384046, -138.86328125 -9.99112801231908, -138.86328125 -156 M-138.86328125 156 C-138.86328125 39.95558654586907, -138.86328125 -76.08882690826186, -138.86328125 -156" stroke="#9370DB" stroke-width="1.3" fill="none" stroke-dasharray="0 0" style=""/></g><g class="annotation-group text" transform="translate(-53.9296875, -132)"><g class="label" style="" transform="translate(0,-12)"><foreignObject width="107.859375" height="24"><div xmlns="http://www.w3.org/1999/xhtml" style="display: table-cell; white-space: nowrap; line-height: 1.5; max-width: 146px; text-align: center;"><span class="nodeLabel markdown-node-label" style=""><p>«enumeration»</p></span></div></foreignObject></g></g><g class="label-group text" transform="translate(-108.4140625, -108)"><g class="label" style="font-weight: bolder" transform="translate(0,-12)"><foreignObject width="216.828125" height="24"><div xmlns="http://www.w3.org/1999/xhtml" style="display: table-cell; white-space: nowrap; line-height: 1.5; max-width: 242px; text-align: center;"><span class="nodeLabel markdown-node-label" style=""><p>DifficultyBudget_Adjustment</p></span></div></foreignObject></g></g><g class="members-group text" transform="translate(-126.86328125, -60)"><g class="label" style="" transform="translate(0,-12)"><foreignObject width="79.203125" height="24"><div xmlns="http://www.w3.org/1999/xhtml" style="display: table-cell; white-space: nowrap; line-height: 1.5; max-width: 121px; text-align: center;"><span class="nodeLabel markdown-node-label" style=""><p>easierFight</p></span></div></foreignObject></g><g class="label" style="" transform="translate(0,12)"><foreignObject width="96.078125" height="24"><div xmlns="http://www.w3.org/1999/xhtml" style="display: table-cell; white-space: nowrap; line-height: 1.5; max-width: 139px; text-align: center;"><span class="nodeLabel markdown-node-label" style=""><p>multipleSolos</p></span></div></foreignObject></g><g class="label" style="" transform="translate(0,36)"><foreignObject width="113.21875" height="24"><div xmlns="http://www.w3.org/1999/xhtml" style="display: table-cell; white-space: nowrap; line-height: 1.5; max-width: 153px; text-align: center;"><span class="nodeLabel markdown-node-label" style=""><p>boostedDamage</p></span></div></foreignObject></g><g class="label" style="" transform="translate(0,60)"><foreignObject width="138.421875" height="24"><div xmlns="http://www.w3.org/1999/xhtml" style="display: table-cell; white-space: nowrap; line-height: 1.5; max-width: 179px; text-align: center;"><span class="nodeLabel markdown-node-label" style=""><p>lowerTierAdversary</p></span></div></foreignObject></g><g class="label" style="" transform="translate(0,84)"><foreignObject width="93.1875" height="24"><div xmlns="http://www.w3.org/1999/xhtml" style="display: table-cell; white-space: nowrap; line-height: 1.5; max-width: 137px; text-align: center;"><span class="nodeLabel markdown-node-label" style=""><p>noBigThreats</p></span></div></foreignObject></g><g class="label" style="" transform="translate(0,108)"><foreignObject width="83.3125" height="24"><div xmlns="http://www.w3.org/1999/xhtml" style="display: table-cell; white-space: nowrap; line-height: 1.5; max-width: 125px; text-align: center;"><span class="nodeLabel markdown-node-label" style=""><p>harderFight</p></span></div></foreignObject></g><g class="label" style="" transform="translate(0,132)"><foreignObject width="108.640625" height="24"><div xmlns="http://www.w3.org/1999/xhtml" style="display: table-cell; white-space: nowrap; line-height: 1.5; max-width: 155px; text-align: center;"><span class="nodeLabel markdown-node-label" style=""><p>+Int pointValue</p></span></div></foreignObject></g><g class="label" style="" transform="translate(0,156)"><foreignObject width="145.3125" height="24"><div xmlns="http://www.w3.org/1999/xhtml" style="display: table-cell; white-space: nowrap; line-height: 1.5; max-width: 191px; text-align: center;"><span class="nodeLabel markdown-node-label" style=""><p>+String displayName</p></span></div></foreignObject></g></g><g class="methods-group text" transform="translate(-126.86328125, 156)"/><g class="divider" style=""><path d="M-138.86328125 -84 C-66.14759715166555 -84, 6.568086946668899 -84, 138.86328125 -84 M-138.86328125 -84 C-56.523912869485684 -84, 25.81545551102863 -84, 138.86328125 -84" stroke="#9370DB" stroke-width="1.3" fill="none" stroke-dasharray="0 0" style=""/></g><g class="divider" style=""><path d="M-138.86328125 132 C-79.3644270840282 132, -19.8655729180564 132, 138.86328125 132 M-138.86328125 132 C-55.92646796976611 132, 27.010345310467784 132, 138.86328125 132" stroke="#9370DB" stroke-width="1.3" fill="none" stroke-dasharray="0 0" style=""/></g></g></g></g></g></svg>